<?xml version="1.0" encoding="UTF-8" standalone="no"?><!DOCTYPE svg PUBLIC "-//W3C//DTD SVG 1.1//EN" "http://www.w3.org/Graphics/SVG/1.1/DTD/svg11.dtd"><!-- Generated by graphviz version 2.40.1 (20161225.0304)
 --><!-- Title: G Pages: 1 --><svg xmlns="http://www.w3.org/2000/svg" xmlns:xlink="http://www.w3.org/1999/xlink" width="649pt" height="108pt" viewBox="0.00 0.00 649.03 107.84">
<g id="graph0" class="graph" transform="scale(1 1) rotate(0) translate(4 103.8354)">
<title>G</title>
<polygon fill="#ffffff" stroke="transparent" points="-4,4 -4,-103.8354 645.026,-103.8354 645.026,4 -4,4"/>
<!-- 0 -->
<g id="node1" class="node">
<title>0</title>
<polygon fill="none" stroke="#c0c0c0" points="120.905,-99.8354 84.905,-99.8354 84.905,-63.8354 120.905,-63.8354 120.905,-99.8354"/>
<text text-anchor="middle" x="102.905" y="-77.6354" font-family="Times,serif" font-size="14.00" fill="#000000">0</text>
</g>
<!-- 1 -->
<g id="node2" class="node">
<title>1</title>
<polygon fill="none" stroke="#000000" points="197.7403,-99.8354 161.7403,-99.8354 161.7403,-63.8354 197.7403,-63.8354 197.7403,-99.8354"/>
<text text-anchor="middle" x="179.7403" y="-77.6354" font-family="Times,serif" font-size="14.00" fill="#000000">1</text>
</g>
<!-- 0&#45;&gt;1 -->
<g id="edge1" class="edge">
<title>0-&gt;1</title>
<path fill="none" stroke="#c0c0c0" d="M121.1139,-81.8354C130.2043,-81.8354 141.4051,-81.8354 151.5725,-81.8354"/>
<polygon fill="#c0c0c0" stroke="#c0c0c0" points="151.6622,-85.3355 161.6621,-81.8354 151.6621,-78.3355 151.6622,-85.3355"/>
</g>
<!-- 2 -->
<g id="node3" class="node">
<title>2</title>
<polygon fill="none" stroke="#000000" points="269.7403,-99.8354 233.7403,-99.8354 233.7403,-63.8354 269.7403,-63.8354 269.7403,-99.8354"/>
<text text-anchor="middle" x="251.7403" y="-77.6354" font-family="Times,serif" font-size="14.00" fill="#000000">2</text>
</g>
<!-- 1&#45;&gt;2 -->
<g id="edge2" class="edge">
<title>1-&gt;2</title>
<path fill="none" stroke="#000000" d="M197.909,-81.8354C205.6094,-81.8354 214.766,-81.8354 223.3237,-81.8354"/>
<polygon fill="#000000" stroke="#000000" points="223.3271,-85.3355 233.3271,-81.8354 223.327,-78.3355 223.3271,-85.3355"/>
</g>
<!-- 3 -->
<g id="node4" class="node">
<title>3</title>
<polygon fill="none" stroke="#000000" points="344.1615,-99.8354 308.1615,-99.8354 308.1615,-63.8354 344.1615,-63.8354 344.1615,-99.8354"/>
<text text-anchor="middle" x="326.1615" y="-77.6354" font-family="Times,serif" font-size="14.00" fill="#000000">3</text>
</g>
<!-- 2&#45;&gt;3 -->
<g id="edge3" class="edge">
<title>2-&gt;3</title>
<path fill="none" stroke="#000000" d="M269.7556,-81.8354C278.1945,-81.8354 288.4472,-81.8354 297.885,-81.8354"/>
<polygon fill="#000000" stroke="#000000" points="298.0542,-85.3355 308.0541,-81.8354 298.0541,-78.3355 298.0542,-85.3355"/>
</g>
<!-- 4 -->
<g id="node5" class="node">
<title>4</title>
<polygon fill="none" stroke="#000000" points="421.8043,-99.8354 385.8043,-99.8354 385.8043,-63.8354 421.8043,-63.8354 421.8043,-99.8354"/>
<text text-anchor="middle" x="403.8043" y="-77.6354" font-family="Times,serif" font-size="14.00" fill="#000000">4</text>
</g>
<!-- 3&#45;&gt;4 -->
<g id="edge4" class="edge">
<title>3-&gt;4</title>
<path fill="none" stroke="#000000" d="M344.1694,-81.8354C353.4125,-81.8354 364.8904,-81.8354 375.3009,-81.8354"/>
<polygon fill="#000000" stroke="#000000" points="375.625,-85.3355 385.625,-81.8354 375.625,-78.3355 375.625,-85.3355"/>
</g>
<!-- 5 -->
<g id="node6" class="node">
<title>5</title>
<polygon fill="none" stroke="#000000" stroke-dasharray="5,2" points="497.026,-99.8354 461.026,-99.8354 461.026,-63.8354 497.026,-63.8354 497.026,-99.8354"/>
<text text-anchor="middle" x="479.026" y="-77.6354" font-family="Times,serif" font-size="14.00" fill="#000000">5</text>
</g>
<!-- 4&#45;&gt;5 -->
<g id="edge5" class="edge">
<title>4-&gt;5</title>
<path fill="none" stroke="#000000" d="M422.0133,-81.8354C430.6986,-81.8354 441.2847,-81.8354 450.9665,-81.8354"/>
<polygon fill="#000000" stroke="#000000" points="450.9846,-85.3355 460.9846,-81.8354 450.9845,-78.3355 450.9846,-85.3355"/>
</g>
<!-- 6 -->
<g id="node7" class="node">
<title>6</title>
<polygon fill="none" stroke="#000000" stroke-dasharray="5,2" points="569.026,-99.8354 533.026,-99.8354 533.026,-63.8354 569.026,-63.8354 569.026,-99.8354"/>
<text text-anchor="middle" x="551.026" y="-77.6354" font-family="Times,serif" font-size="14.00" fill="#000000">6</text>
</g>
<!-- 5&#45;&gt;6 -->
<g id="edge6" class="edge">
<title>5-&gt;6</title>
<path fill="none" stroke="#000000" stroke-dasharray="5,2" d="M497.1946,-81.8354C504.895,-81.8354 514.0516,-81.8354 522.6093,-81.8354"/>
<polygon fill="#000000" stroke="#000000" points="522.6127,-85.3355 532.6127,-81.8354 522.6127,-78.3355 522.6127,-85.3355"/>
</g>
<!-- 7 -->
<g id="node8" class="node">
<title>7</title>
<polygon fill="none" stroke="#000000" stroke-dasharray="5,2" points="641.026,-99.8354 605.026,-99.8354 605.026,-63.8354 641.026,-63.8354 641.026,-99.8354"/>
<text text-anchor="middle" x="623.026" y="-77.6354" font-family="Times,serif" font-size="14.00" fill="#000000">7</text>
</g>
<!-- 6&#45;&gt;7 -->
<g id="edge7" class="edge">
<title>6-&gt;7</title>
<path fill="none" stroke="#000000" stroke-dasharray="5,2" d="M569.1946,-81.8354C576.895,-81.8354 586.0516,-81.8354 594.6093,-81.8354"/>
<polygon fill="#000000" stroke="#000000" points="594.6127,-85.3355 604.6127,-81.8354 594.6127,-78.3355 594.6127,-85.3355"/>
</g>
<!-- vs -->
<g id="node9" class="node">
<title>vs</title>
<ellipse fill="none" stroke="#c0c0c0" cx="22.0348" cy="-22.8354" rx="22.0697" ry="22.0697"/>
<text text-anchor="middle" x="22.0348" y="-18.6354" font-family="Times,serif" font-size="14.00" fill="#000000">vs </text>
</g>
<!-- vs&#45;&gt;0 -->
<g id="edge8" class="edge">
<title>vs-&gt;0</title>
<path fill="none" stroke="#c0c0c0" stroke-width="2" d="M39.9825,-35.9294C50.6917,-43.7424 64.4866,-53.8067 76.4295,-62.5198"/>
<polygon fill="#c0c0c0" stroke="#c0c0c0" stroke-width="2" points="74.5864,-65.5076 84.7278,-68.5739 78.7121,-59.8526 74.5864,-65.5076"/>
</g>
<!-- vs2 -->
<g id="node11" class="node">
<title>vs2</title>
<ellipse fill="none" stroke="#000000" cx="102.905" cy="-22.8354" rx="22.6719" ry="22.6719"/>
<text text-anchor="middle" x="102.905" y="-18.6354" font-family="Times,serif" font-size="14.00" fill="#000000">vs'</text>
</g>
<!-- vs&#45;&gt;vs2 -->
<!-- fs -->
<g id="node10" class="node">
<title>fs</title>
<ellipse fill="none" stroke="#c0c0c0" cx="326.1615" cy="-24.8354" rx="20.3426" ry="20.3426"/>
<text text-anchor="middle" x="326.1615" y="-20.6354" font-family="Times,serif" font-size="14.00" fill="#000000">fs </text>
</g>
<!-- fs&#45;&gt;4 -->
<g id="edge9" class="edge">
<title>fs-&gt;4</title>
<path fill="none" stroke="#c0c0c0" stroke-width="2" d="M342.6275,-36.9236C352.8004,-44.3919 366.0801,-54.1409 377.6664,-62.6468"/>
<polygon fill="#c0c0c0" stroke="#c0c0c0" stroke-width="2" points="375.6029,-65.4738 385.7352,-68.5703 379.7454,-59.8311 375.6029,-65.4738"/>
</g>
<!-- fs2 -->
<g id="node12" class="node">
<title>fs2</title>
<ellipse fill="none" stroke="#000000" cx="403.8043" cy="-24.8354" rx="21.4457" ry="21.4457"/>
<text text-anchor="middle" x="403.8043" y="-20.6354" font-family="Times,serif" font-size="14.00" fill="#000000">fs'</text>
</g>
<!-- fs&#45;&gt;fs2 -->
<!-- vs2&#45;&gt;1 -->
<g id="edge10" class="edge">
<title>vs2-&gt;1</title>
<path fill="none" stroke="#000000" stroke-width="2" d="M121.1139,-36.8175C130.7785,-44.2387 142.8283,-53.4916 153.4858,-61.6751"/>
<polygon fill="#000000" stroke="#000000" stroke-width="2" points="151.599,-64.6392 161.6621,-67.9536 155.8623,-59.0872 151.599,-64.6392"/>
</g>
<!-- vs2&#45;&gt;fs -->
<!-- fs2&#45;&gt;5 -->
<g id="edge11" class="edge">
<title>fs2-&gt;5</title>
<path fill="none" stroke="#000000" stroke-width="2" d="M420.8732,-37.7695C430.3134,-44.9229 442.244,-53.9635 452.8386,-61.9916"/>
<polygon fill="#000000" stroke="#000000" stroke-width="2" points="450.8915,-64.9076 460.9756,-68.1575 455.1192,-59.3284 450.8915,-64.9076"/>
</g>
</g>
</svg>