<?xml version="1.0" encoding="UTF-8" standalone="no"?><!DOCTYPE svg PUBLIC "-//W3C//DTD SVG 1.1//EN" "http://www.w3.org/Graphics/SVG/1.1/DTD/svg11.dtd"><!-- Generated by graphviz version 2.40.1 (20161225.0304)
 --><!-- Title: G Pages: 1 --><svg xmlns="http://www.w3.org/2000/svg" xmlns:xlink="http://www.w3.org/1999/xlink" width="633pt" height="104pt" viewBox="0.00 0.00 632.91 104.03">
<g id="graph0" class="graph" transform="scale(1 1) rotate(0) translate(4 100.0348)">
<title>G</title>
<polygon fill="#ffffff" stroke="transparent" points="-4,4 -4,-100.0348 628.9119,-100.0348 628.9119,4 -4,4"/>
<!-- 0 -->
<g id="node1" class="node">
<title>0</title>
<polygon fill="none" stroke="#000000" points="116.0696,-96.0348 80.0696,-96.0348 80.0696,-60.0348 116.0696,-60.0348 116.0696,-96.0348"/>
<text text-anchor="middle" x="98.0696" y="-73.8348" font-family="Times,serif" font-size="14.00" fill="#000000">0</text>
</g>
<!-- 1 -->
<g id="node2" class="node">
<title>1</title>
<polygon fill="none" stroke="#000000" points="188.0696,-96.0348 152.0696,-96.0348 152.0696,-60.0348 188.0696,-60.0348 188.0696,-96.0348"/>
<text text-anchor="middle" x="170.0696" y="-73.8348" font-family="Times,serif" font-size="14.00" fill="#000000">1</text>
</g>
<!-- 0&#45;&gt;1 -->
<g id="edge1" class="edge">
<title>0-&gt;1</title>
<path fill="none" stroke="#000000" d="M116.2382,-78.0348C123.9387,-78.0348 133.0953,-78.0348 141.653,-78.0348"/>
<polygon fill="#000000" stroke="#000000" points="141.6564,-81.5349 151.6563,-78.0348 141.6563,-74.5349 141.6564,-81.5349"/>
</g>
<!-- 2 -->
<g id="node3" class="node">
<title>2</title>
<polygon fill="none" stroke="#000000" points="260.0696,-96.0348 224.0696,-96.0348 224.0696,-60.0348 260.0696,-60.0348 260.0696,-96.0348"/>
<text text-anchor="middle" x="242.0696" y="-73.8348" font-family="Times,serif" font-size="14.00" fill="#000000">2</text>
</g>
<!-- 1&#45;&gt;2 -->
<g id="edge2" class="edge">
<title>1-&gt;2</title>
<path fill="none" stroke="#000000" d="M188.2382,-78.0348C195.9387,-78.0348 205.0953,-78.0348 213.653,-78.0348"/>
<polygon fill="#000000" stroke="#000000" points="213.6564,-81.5349 223.6563,-78.0348 213.6563,-74.5349 213.6564,-81.5349"/>
</g>
<!-- 3 -->
<g id="node4" class="node">
<title>3</title>
<polygon fill="none" stroke="#000000" points="334.4907,-96.0348 298.4907,-96.0348 298.4907,-60.0348 334.4907,-60.0348 334.4907,-96.0348"/>
<text text-anchor="middle" x="316.4907" y="-73.8348" font-family="Times,serif" font-size="14.00" fill="#000000">3</text>
</g>
<!-- 2&#45;&gt;3 -->
<g id="edge3" class="edge">
<title>2-&gt;3</title>
<path fill="none" stroke="#000000" d="M260.0849,-78.0348C268.5238,-78.0348 278.7765,-78.0348 288.2143,-78.0348"/>
<polygon fill="#000000" stroke="#000000" points="288.3834,-81.5349 298.3834,-78.0348 288.3834,-74.5349 288.3834,-81.5349"/>
</g>
<!-- 4 -->
<g id="node5" class="node">
<title>4</title>
<polygon fill="none" stroke="#000000" stroke-dasharray="5,2" points="408.9119,-96.0348 372.9119,-96.0348 372.9119,-60.0348 408.9119,-60.0348 408.9119,-96.0348"/>
<text text-anchor="middle" x="390.9119" y="-73.8348" font-family="Times,serif" font-size="14.00" fill="#000000">4</text>
</g>
<!-- 3&#45;&gt;4 -->
<g id="edge4" class="edge">
<title>3-&gt;4</title>
<path fill="none" stroke="#000000" d="M334.506,-78.0348C342.9449,-78.0348 353.1976,-78.0348 362.6354,-78.0348"/>
<polygon fill="#000000" stroke="#000000" points="362.8046,-81.5349 372.8045,-78.0348 362.8045,-74.5349 362.8046,-81.5349"/>
</g>
<!-- 5 -->
<g id="node6" class="node">
<title>5</title>
<polygon fill="none" stroke="#000000" stroke-dasharray="5,2" points="480.9119,-96.0348 444.9119,-96.0348 444.9119,-60.0348 480.9119,-60.0348 480.9119,-96.0348"/>
<text text-anchor="middle" x="462.9119" y="-73.8348" font-family="Times,serif" font-size="14.00" fill="#000000">5</text>
</g>
<!-- 4&#45;&gt;5 -->
<g id="edge5" class="edge">
<title>4-&gt;5</title>
<path fill="none" stroke="#000000" stroke-dasharray="5,2" d="M409.0805,-78.0348C416.7809,-78.0348 425.9375,-78.0348 434.4952,-78.0348"/>
<polygon fill="#000000" stroke="#000000" points="434.4986,-81.5349 444.4986,-78.0348 434.4986,-74.5349 434.4986,-81.5349"/>
</g>
<!-- 6 -->
<g id="node7" class="node">
<title>6</title>
<polygon fill="none" stroke="#000000" stroke-dasharray="5,2" points="552.9119,-96.0348 516.9119,-96.0348 516.9119,-60.0348 552.9119,-60.0348 552.9119,-96.0348"/>
<text text-anchor="middle" x="534.9119" y="-73.8348" font-family="Times,serif" font-size="14.00" fill="#000000">6</text>
</g>
<!-- 5&#45;&gt;6 -->
<g id="edge6" class="edge">
<title>5-&gt;6</title>
<path fill="none" stroke="#000000" stroke-dasharray="5,2" d="M481.0805,-78.0348C488.7809,-78.0348 497.9375,-78.0348 506.4952,-78.0348"/>
<polygon fill="#000000" stroke="#000000" points="506.4986,-81.5349 516.4986,-78.0348 506.4986,-74.5349 506.4986,-81.5349"/>
</g>
<!-- 7 -->
<g id="node8" class="node">
<title>7</title>
<polygon fill="none" stroke="#000000" stroke-dasharray="5,2" points="624.9119,-96.0348 588.9119,-96.0348 588.9119,-60.0348 624.9119,-60.0348 624.9119,-96.0348"/>
<text text-anchor="middle" x="606.9119" y="-73.8348" font-family="Times,serif" font-size="14.00" fill="#000000">7</text>
</g>
<!-- 6&#45;&gt;7 -->
<g id="edge7" class="edge">
<title>6-&gt;7</title>
<path fill="none" stroke="#000000" stroke-dasharray="5,2" d="M553.0805,-78.0348C560.7809,-78.0348 569.9375,-78.0348 578.4952,-78.0348"/>
<polygon fill="#000000" stroke="#000000" points="578.4986,-81.5349 588.4986,-78.0348 578.4986,-74.5349 578.4986,-81.5349"/>
</g>
<!-- vs -->
<g id="node9" class="node">
<title>vs</title>
<ellipse fill="none" stroke="#000000" cx="22.0348" cy="-22.0348" rx="22.0697" ry="22.0697"/>
<text text-anchor="middle" x="22.0348" y="-17.8348" font-family="Times,serif" font-size="14.00" fill="#000000">vs </text>
</g>
<!-- vs&#45;&gt;0 -->
<g id="edge8" class="edge">
<title>vs-&gt;0</title>
<path fill="none" stroke="#000000" stroke-width="2" d="M40.054,-35.306C49.5486,-42.2988 61.3695,-51.005 71.8591,-58.7307"/>
<polygon fill="#000000" stroke="#000000" stroke-width="2" points="69.7888,-61.5527 79.9163,-64.6648 73.94,-55.9163 69.7888,-61.5527"/>
</g>
<!-- fs -->
<g id="node10" class="node">
<title>fs</title>
<ellipse fill="none" stroke="#000000" cx="316.4907" cy="-22.0348" rx="20.3426" ry="20.3426"/>
<text text-anchor="middle" x="316.4907" y="-17.8348" font-family="Times,serif" font-size="14.00" fill="#000000">fs </text>
</g>
<!-- vs&#45;&gt;fs -->
<!-- fs&#45;&gt;4 -->
<g id="edge9" class="edge">
<title>fs-&gt;4</title>
<path fill="none" stroke="#000000" stroke-width="2" d="M333.0072,-34.463C342.3331,-41.4805 354.2019,-50.4115 364.7629,-58.3584"/>
<polygon fill="#000000" stroke="#000000" stroke-width="2" points="362.7838,-61.2494 372.8788,-64.4654 366.9927,-55.656 362.7838,-61.2494"/>
</g>
</g>
</svg>